<?xml version="1.0" standalone="no"?>
<!DOCTYPE svg PUBLIC "-//W3C//DTD SVG 20010904//EN" "http://www.w3.org/TR/2001/REC-SVG-20010904/DTD/svg10.dtd">
<svg version="1.0" xmlns="http://www.w3.org/2000/svg"
  width="118.000000pt" height="118.000000pt" viewBox="0 0 118.000000 118.000000"
  preserveAspectRatio="xMidYMid meet">

  <g transform="translate(0.000000,118.000000) scale(0.100000,-0.100000)"
    fill="rgb(208, 135, 112)" stroke="none">
    <path d="M500 930 l0 -61 38 6 c71 13 115 26 106 34 -5 4 -39 25 -76 45 l-68
37 0 -61z"
    />
    <path
      d="M600 869 c-25 -5 -69 -14 -97 -20 l-53 -10 0 -178 0 -179 44 16 c25
9 48 13 52 10 3 -4 1 -29 -6 -55 -6 -26 -15 -73 -20 -102 -7 -54 -6 -56 27
-87 l33 -32 46 52 c25 28 52 65 60 82 12 28 11 36 -7 74 -17 35 -19 48 -10 67
15 32 14 43 -3 37 -17 -6 -31 12 -16 21 6 4 8 11 5 16 -4 5 -1 9 4 9 6 0 11
11 11 25 0 18 5 25 20 25 24 0 25 6 4 55 -10 24 -13 51 -10 71 4 17 4 51 0 73
-7 45 -8 45 -84 30z m11 -369 c16 0 10 -18 -15 -47 l-24 -27 2 42 c0 31 4 41
14 37 8 -3 18 -5 23 -5z"
    />
  </g>
</svg>